<?xml version="1.0" encoding="UTF-8" standalone="no"?>
<!DOCTYPE svg PUBLIC "-//W3C//DTD SVG 1.1//EN" "http://www.w3.org/Graphics/SVG/1.1/DTD/svg11.dtd">
<svg width="100%" height="100%" viewBox="0 0 11812 11812" version="1.1" xmlns="http://www.w3.org/2000/svg" xmlns:xlink="http://www.w3.org/1999/xlink" xml:space="preserve" xmlns:serif="http://www.serif.com/" style="fill-rule:evenodd;clip-rule:evenodd;stroke-linejoin:round;stroke-miterlimit:2;">
    <g transform="matrix(1.58464,0,0,1.73573,-1700.78,-1817.28)">
        <path d="M7440,2239.95C7440,2222.19 7432.27,2205.16 7418.52,2192.61C7404.77,2180.05 7386.12,2173 7366.67,2173C6840.02,2173 3639.98,2173 3113.33,2173C3093.88,2173 3075.23,2180.05 3061.48,2192.61C3047.73,2205.16 3040,2222.19 3040,2239.95L3040,7462.05C3040,7479.81 3047.73,7496.84 3061.48,7509.39C3075.23,7521.95 3093.88,7529 3113.33,7529C3639.98,7529 6840.02,7529 7366.67,7529C7386.12,7529 7404.77,7521.95 7418.52,7509.39C7432.27,7496.84 7440,7479.81 7440,7462.05C7440,6888.76 7440,2813.24 7440,2239.95Z" style="fill:rgb(208,61,48);"/>
    </g>
    <g transform="matrix(1.96778,0,0,1.70893,-5017.97,-4460.86)">
        <path d="M7677.16,3006C7677.16,2968.45 7650.73,2938 7618.11,2938C7194.01,2938 4617.02,2938 4192.91,2938C4160.3,2938 4133.86,2968.45 4133.86,3006L4133.86,3006C4133.86,3043.55 4160.3,3074 4192.91,3074C4617.02,3074 7194.01,3074 7618.11,3074C7650.73,3074 7677.16,3043.55 7677.16,3006C7677.16,3006 7677.16,3006 7677.16,3006Z" style="fill:rgb(208,61,48);"/>
    </g>
    <g transform="matrix(1.96778,0,0,1.96778,-5017.97,-5017.97)">
        <path d="M4015.75,2893.7C4015.75,2909.36 4009.53,2924.39 3998.45,2935.46C3987.38,2946.53 3972.36,2952.76 3956.69,2952.76L3779.53,2952.76C3716.88,2952.76 3656.79,2977.64 3612.49,3021.94C3568.2,3066.24 3543.31,3126.33 3543.31,3188.98L3543.31,3305.38C3543.31,3368.03 3568.2,3428.11 3612.49,3472.41C3656.79,3516.71 3716.88,3541.6 3779.53,3541.6L3897.64,3541.6C3962.87,3541.6 4015.75,3594.48 4015.75,3659.71L4015.75,8208.66C4015.75,8224.32 4009.53,8239.34 3998.45,8250.42C3998.45,8250.42 3998.45,8250.42 3998.45,8250.42C3987.84,8261.03 3973.06,8266.36 3958.12,8264.96C3659,8235.96 3425.2,7983.86 3425.2,7677.17L3425.2,3211.03C3425.2,3003.16 3593.71,2834.65 3801.58,2834.65L3956.69,2834.65C3989.31,2834.65 4015.75,2861.09 4015.75,2893.7L4015.75,2893.7Z" style="fill:rgb(208,61,48);"/>
    </g>
</svg>
