<?xml version="1.0" encoding="utf-8"?>
<!-- Generator: Adobe Illustrator 23.0.1, SVG Export Plug-In . SVG Version: 6.00 Build 0)  -->
<svg version="1.1" id="Layer_1" xmlns:serif="http://www.serif.com/"
	 xmlns="http://www.w3.org/2000/svg" xmlns:xlink="http://www.w3.org/1999/xlink" x="0px" y="0px" viewBox="0 0 2000 2000"
	 style="enable-background:new 0 0 2000 2000;" xml:space="preserve">
<style type="text/css">
	.st0{fill-rule:evenodd;clip-rule:evenodd;}
</style>
<g transform="matrix(1.58464,0,0,1.73573,-1700.78,-1817.28)">
	<path class="st0" d="M2151.3,1249c0-3-1.3-5.9-3.6-8c-2.3-2.1-5.5-3.3-8.8-3.3c-89.2,0-631,0-720.2,0c-3.3,0-6.5,1.2-8.8,3.3
		c-2.3,2.1-3.6,5-3.6,8v884.2c0,3,1.3,5.9,3.6,8c2.3,2.1,5.5,3.3,8.8,3.3c89.2,0,631,0,720.2,0c3.3,0,6.5-1.2,8.8-3.3
		c2.3-2.1,3.6-5,3.6-8C2151.3,2036.1,2151.3,1346,2151.3,1249z"/>
</g>
<g transform="matrix(1.96778,0,0,1.70893,-5017.97,-4460.86)">
	<path class="st0" d="M3418.2,2677.3c0-6.4-4.5-11.5-10-11.5c-71.8,0-508.1,0-580,0c-5.5,0-10,5.2-10,11.5l0,0
		c0,6.4,4.5,11.5,10,11.5c71.8,0,508.1,0,580,0C3413.7,2688.8,3418.2,2683.7,3418.2,2677.3L3418.2,2677.3z"/>
</g>
<g transform="matrix(1.96778,0,0,1.96778,-5017.97,-5017.97)">
	<path class="st0" d="M2798.2,2608.3c0,2.7-1.1,5.2-2.9,7.1c-1.9,1.9-4.4,2.9-7.1,2.9h-30c-10.6,0-20.8,4.2-28.3,11.7
		c-7.5,7.5-11.7,17.7-11.7,28.3v19.7c0,10.6,4.2,20.8,11.7,28.3c7.5,7.5,17.7,11.7,28.3,11.7h20c11,0,20,9,20,20v770.2
		c0,2.7-1.1,5.2-2.9,7.1l0,0c-1.8,1.8-4.3,2.7-6.8,2.5c-50.6-4.9-90.2-47.6-90.2-99.5V2662c0-35.2,28.5-63.7,63.7-63.7h26.3
		C2793.8,2598.3,2798.2,2602.7,2798.2,2608.3L2798.2,2608.3z"/>
</g>
</svg>
